<?xml version="1.0" encoding="iso-8859-1"?>
<!-- Generator: Adobe Illustrator 19.0.0, SVG Export Plug-In . SVG Version: 6.00 Build 0)  -->
<svg version="1.1" id="Layer_1" xmlns="http://www.w3.org/2000/svg" xmlns:xlink="http://www.w3.org/1999/xlink" x="0px" y="0px"
	 viewBox="0 0 512.004 512.004" style="enable-background:new 0 0 512.004 512.004;" xml:space="preserve">
<g>
	<g>
		<rect x="239.312" y="64.005" width="33.391" height="89.042"/>
	</g>
</g>
<g>
	<g>
		
			<rect x="89.773" y="125.945" transform="matrix(0.7071 -0.7071 0.7071 0.7071 -89.3532 125.2126)" width="33.391" height="89.041"/>
	</g>
</g>
<g>
	<g>
		<rect x="0.008" y="303.306" width="89.042" height="33.391"/>
	</g>
</g>
<g>
	<g>
		<rect y="414.609" width="512.004" height="33.391"/>
	</g>
</g>
<g>
	<g>
		<rect x="422.962" y="303.306" width="89.041" height="33.391"/>
	</g>
</g>
<g>
	<g>
		
			<rect x="361.009" y="153.771" transform="matrix(0.7071 -0.7071 0.7071 0.7071 -1.7614 336.6808)" width="89.039" height="33.391"/>
	</g>
</g>
<g>
	<g>
		<path d="M256.003,180.876c-76.716,0-139.129,62.413-139.129,139.129c0,21.955,5.119,42.733,14.214,61.217h38.745
			c-12.317-17.286-19.568-38.422-19.568-61.217c0-58.304,47.434-105.738,105.738-105.738s105.738,47.434,105.738,105.738
			c0,22.795-7.251,43.93-19.568,61.217h38.745c9.096-18.484,14.214-39.262,14.214-61.217
			C395.132,243.289,332.719,180.876,256.003,180.876z"/>
	</g>
</g>
<g>
</g>
<g>
</g>
<g>
</g>
<g>
</g>
<g>
</g>
<g>
</g>
<g>
</g>
<g>
</g>
<g>
</g>
<g>
</g>
<g>
</g>
<g>
</g>
<g>
</g>
<g>
</g>
<g>
</g>
</svg>
